<svg width="24" height="24" viewBox="0 0 24 24" fill="none" xmlns="http://www.w3.org/2000/svg">
<path d="M20.8 1H3.2C1.99 1 1 1.99073 1 3.2V20.8C1 22.0085 1.99 23 3.2 23H20.8C22.01 23 23 22.0085 23 20.8V3.2C23 1.99073 22.01 1 20.8 1ZM6.93707 20.3615H3.56667V17.3636H6.93707V20.3615ZM6.93707 16.3582H3.56667V13.3618H6.93707V16.3582ZM6.68333 4.33447C6.1678 4.33447 5.7498 3.9172 5.7498 3.40093C5.7498 2.88467 6.1678 2.46667 6.68333 2.46667C7.19887 2.46667 7.61687 2.88393 7.61687 3.4002C7.61687 3.91647 7.19887 4.33447 6.68333 4.33447ZM11.4346 20.3615H8.06493V17.3636H11.4346V20.3615ZM11.4346 16.3582H8.06493V13.3618H11.4346V16.3582ZM11.4346 12.3579H8.06493V9.36147H11.4346V12.3579ZM11.0665 3.4002C11.0665 2.88393 11.4845 2.46667 12 2.46667C12.5155 2.46667 12.9335 2.88393 12.9335 3.4002C12.9335 3.91647 12.5155 4.33373 12 4.33373C11.4845 4.33373 11.0665 3.9172 11.0665 3.4002ZM15.9351 16.3582H12.5647V13.3618H15.9358V16.3582H15.9351ZM15.9351 12.3579H12.5647V9.36147H15.9358V12.3579H15.9351ZM16.3831 3.4002C16.3831 2.88393 16.8011 2.46667 17.3167 2.46667C17.8322 2.46667 18.2502 2.88393 18.2502 3.4002C18.2502 3.91647 17.8322 4.33373 17.3167 4.33373C16.8011 4.33373 16.3831 3.9172 16.3831 3.4002ZM20.4333 16.3582H17.0629V13.3618H20.4333V16.3582ZM20.4333 12.3579H17.0629V9.36147H20.4333V12.3579Z" fill="white"/>
</svg>
